<svg xmlns="http://www.w3.org/2000/svg" xmlns:xlink="http://www.w3.org/1999/xlink" width="16" height="16" viewBox="0 0 16 16"><defs><style>.a{fill:#95989a;stroke:#707070;}.b{clip-path:url(#a);}.c{fill:#1087ff;fill-rule:evenodd;}</style><clipPath id="a"><rect class="a" width="16" height="16" transform="translate(16 678)"/></clipPath></defs><g class="b" transform="translate(-16 -678)"><path class="c" d="M797.584,109.681v1.684h2.286a.2.2,0,0,1,.2.215l-.2,2.372a.2.2,0,0,1-.2.181h-2.081V122a.2.2,0,0,1-.2.2h-2.874a.2.2,0,0,1-.2-.2v-7.863h-1.439a.2.2,0,0,1-.2-.2v-2.372a.2.2,0,0,1,.2-.2h1.435v-2.287a2.877,2.877,0,0,1,2.882-2.878H799.9a.2.2,0,0,1,.2.2v2.372a.2.2,0,0,1-.2.2h-1.6A.715.715,0,0,0,797.584,109.681Z" transform="translate(-772.387 571.802)"/></g></svg>