<svg xmlns="http://www.w3.org/2000/svg" xmlns:xlink="http://www.w3.org/1999/xlink" width="16" height="16" viewBox="0 0 16 16"><defs><style>.a{fill:#95989a;stroke:#707070;}.b{clip-path:url(#a);}.c{fill:none;}.d{fill:#fbbc05;}.d,.e,.f,.g{fill-rule:evenodd;}.e{fill:#ea4335;}.f{fill:#34a853;}.g{fill:#4285f4;}</style><clipPath id="a"><rect class="a" width="16" height="16" transform="translate(56 678)"/></clipPath></defs><g class="b" transform="translate(-56 -678)"><g transform="translate(56 678)"><rect class="c" width="16" height="16"/><path class="d" d="M3.448,8a4.73,4.73,0,0,1,.24-1.485L.992,4.456a8.055,8.055,0,0,0,0,7.086L3.686,9.479A4.733,4.733,0,0,1,3.448,8"/><path class="e" d="M8.182,3.273a4.636,4.636,0,0,1,2.95,1.055L13.462,2A8.006,8.006,0,0,0,.992,4.456l2.7,2.059A4.721,4.721,0,0,1,8.182,3.273"/><path class="f" d="M8.182,12.727A4.721,4.721,0,0,1,3.688,9.485l-2.7,2.059A7.987,7.987,0,0,0,8.182,16a7.635,7.635,0,0,0,5.22-1.994l-2.559-1.978a4.956,4.956,0,0,1-2.66.7"/><path class="g" d="M15.829,8a6.626,6.626,0,0,0-.182-1.455H8.182V9.636h4.3a3.6,3.6,0,0,1-1.637,2.391L13.4,14.006A7.956,7.956,0,0,0,15.829,8"/></g></g></svg>