<svg xmlns="http://www.w3.org/2000/svg" xmlns:xlink="http://www.w3.org/1999/xlink" width="16" height="16" viewBox="0 0 16 16"><defs><style>.a{fill:#95989a;stroke:#707070;}.b{clip-path:url(#a);}.c{fill:#1cb7eb;}.d{fill:#fff;}</style><clipPath id="a"><rect class="a" width="16" height="16" transform="translate(96 678)"/></clipPath></defs><g class="b" transform="translate(-96 -678)"><g transform="translate(96 678)"><circle class="c" cx="8" cy="8" r="8"/><path class="d" d="M12.267,5.133a2.672,2.672,0,0,1-1,.3A1.857,1.857,0,0,0,12.033,4.4a3.856,3.856,0,0,1-1.133.467,1.7,1.7,0,0,0-1.267-.6,1.832,1.832,0,0,0-1.767,1.9A1.9,1.9,0,0,0,7.9,6.6,4.879,4.879,0,0,1,4.267,4.633a1.809,1.809,0,0,0-.233.967A1.9,1.9,0,0,0,4.8,7.167,1.6,1.6,0,0,1,4,6.933v.033A1.91,1.91,0,0,0,5.4,8.833a1.967,1.967,0,0,1-.467.067A1.134,1.134,0,0,1,4.6,8.867a1.733,1.733,0,0,0,1.633,1.3,3.4,3.4,0,0,1-2.167.8,2.05,2.05,0,0,1-.433-.033,4.736,4.736,0,0,0,2.7.867,5.165,5.165,0,0,0,5-5.367V6.2A3.982,3.982,0,0,0,12.267,5.133Z"/></g></g></svg>